<?xml version="1.0" encoding="UTF-8" standalone="no"?>
<!-- Created with Inkscape (http://www.inkscape.org/) -->

<svg
   xmlns:dc="http://purl.org/dc/elements/1.1/"
   xmlns:cc="http://creativecommons.org/ns#"
   xmlns:rdf="http://www.w3.org/1999/02/22-rdf-syntax-ns#"
   xmlns:svg="http://www.w3.org/2000/svg"
   xmlns="http://www.w3.org/2000/svg"
   xmlns:xlink="http://www.w3.org/1999/xlink"
   xmlns:sodipodi="http://sodipodi.sourceforge.net/DTD/sodipodi-0.dtd"
   xmlns:inkscape="http://www.inkscape.org/namespaces/inkscape"
   width="480"
   height="640"
   id="svg11624"
   version="1.1"
   inkscape:version="0.48.5 r10040"
   sodipodi:docname="Ice Cream and Sugar Cone.svg">
  <title
     id="title11722">Ice Cream and Sugar Cone Animation</title>
  <defs
     id="defs11626">
    <filter
       inkscape:collect="always"
       id="filter4100"
       color-interpolation-filters="sRGB">
      <feGaussianBlur
         inkscape:collect="always"
         stdDeviation="0.275"
         id="feGaussianBlur4102" />
    </filter>
    <linearGradient
       inkscape:collect="always"
       xlink:href="#linearGradient4104"
       id="linearGradient4110"
       x1="372.54486"
       y1="224.73315"
       x2="416.66754"
       y2="223.39897"
       gradientUnits="userSpaceOnUse" />
    <linearGradient
       inkscape:collect="always"
       id="linearGradient4104">
      <stop
         style="stop-color:#d38d5f;stop-opacity:1;"
         offset="0"
         id="stop4106" />
      <stop
         style="stop-color:#d38d5f;stop-opacity:0;"
         offset="1"
         id="stop4108" />
    </linearGradient>
    <filter
       inkscape:collect="always"
       id="filter4096"
       color-interpolation-filters="sRGB">
      <feGaussianBlur
         inkscape:collect="always"
         stdDeviation="0.275"
         id="feGaussianBlur4098" />
    </filter>
    <clipPath
       clipPathUnits="userSpaceOnUse"
       id="clipPath4065">
      <path
         style="color:#000000;fill:none;stroke:#000000;stroke-width:0.30000001;stroke-linecap:round;stroke-linejoin:round;stroke-miterlimit:4;stroke-opacity:1;stroke-dasharray:none;stroke-dashoffset:6;marker:none;visibility:visible;display:inline;overflow:visible;enable-background:accumulate"
         d="m 340,160 43,130 c 1.60417,-0.70747 2.94149,-0.61443 4.8125,-6.125 C 402.54152,241.32449 417.77233,195.32438 430,160 z"
         id="path4067"
         inkscape:connector-curvature="0"
         sodipodi:nodetypes="ccccc" />
    </clipPath>
  </defs>
  <sodipodi:namedview
     id="base"
     pagecolor="#ffffff"
     bordercolor="#666666"
     borderopacity="1.0"
     inkscape:pageopacity="0.0"
     inkscape:pageshadow="2"
     inkscape:zoom="0.5953125"
     inkscape:cx="99.317585"
     inkscape:cy="300"
     inkscape:current-layer="svg11624"
     inkscape:document-units="px"
     showgrid="false"
     inkscape:window-width="1366"
     inkscape:window-height="705"
     inkscape:window-x="-8"
     inkscape:window-y="-8"
     inkscape:window-maximized="1" />
  <metadata
     id="metadata11629">
    <rdf:RDF>
      <cc:Work
         rdf:about="">
        <dc:format>image/svg+xml</dc:format>
        <dc:type
           rdf:resource="http://purl.org/dc/dcmitype/StillImage" />
        <dc:title>Ice Cream and Sugar Cone Animation</dc:title>
        <dc:creator>
          <cc:Agent>
            <dc:title>Aukipa</dc:title>
          </cc:Agent>
        </dc:creator>
        <dc:subject>
          <rdf:Bag>
            <rdf:li>Animation</rdf:li>
            <rdf:li>Animate</rdf:li>
            <rdf:li>SMIL</rdf:li>
            <rdf:li>Ice Cream</rdf:li>
            <rdf:li>Sugar Cone</rdf:li>
          </rdf:Bag>
        </dc:subject>
        <dc:description>Animation of Strawberry or Cherry Ice Cream dripping on a sugar cone. </dc:description>
        <dc:publisher>
          <cc:Agent>
            <dc:title>http://www.portaloha.com/creative-dept</dc:title>
          </cc:Agent>
        </dc:publisher>
      </cc:Work>
    </rdf:RDF>
  </metadata>
  <g
     id="layer1"
     inkscape:label="Layer 1"
     inkscape:groupmode="layer"
     transform="translate(-45.354331,1.67979)">
    <g
       id="IceCream and SugarCone"
       transform="matrix(1.8,0,0,1.8,-412.4151,39.579275)">
      <g
         inkscape:label="#g4087"
         id="Cone">
        <path
           style="color:#000000;fill:#d45500;fill-opacity:1;fill-rule:nonzero;stroke:#000000;stroke-width:0.30000001;stroke-linecap:round;stroke-linejoin:round;stroke-miterlimit:4;stroke-opacity:1;stroke-dasharray:none;stroke-dashoffset:6;marker:none;visibility:visible;display:inline;overflow:visible;filter:url(#filter4100);enable-background:accumulate"
           d="m 342,160 43,130 c 1.60417,-0.70747 2.94149,-0.61443 4.8125,-6.125 C 404.54152,241.32449 419.77233,195.32438 432,160 z"
           id="path5083-7"
           inkscape:connector-curvature="0"
           sodipodi:nodetypes="ccccc" />
        <path
           style="color:#000000;fill:url(#linearGradient4110);fill-opacity:1;fill-rule:nonzero;stroke:#000000;stroke-width:0.30000001;stroke-linecap:round;stroke-linejoin:round;stroke-miterlimit:4;stroke-opacity:1;stroke-dasharray:none;stroke-dashoffset:6;marker:none;visibility:visible;display:inline;overflow:visible;filter:url(#filter4096);enable-background:accumulate"
           d="m 340,160 43,130 c 1.60417,-0.70747 2.94149,-0.61443 4.8125,-6.125 C 402.54152,241.32449 417.77233,195.32438 430,160 z"
           id="path5083"
           inkscape:connector-curvature="0"
           sodipodi:nodetypes="ccccc" />
        <path
           id="path3157-9-2-4-5-5"
           style="color:#000000;fill:#1a1a1a;fill-opacity:1;fill-rule:nonzero;stroke:#000000;stroke-width:0.60000002;stroke-linecap:round;stroke-linejoin:round;stroke-miterlimit:4;stroke-opacity:1;stroke-dasharray:none;stroke-dashoffset:6;marker:none;visibility:visible;display:inline;overflow:visible;enable-background:accumulate"
           d="m 435.17878,165.47547 -21.19107,121.00937 m 5.38175,-121.00937 -21.19107,121.00937 m 5.38175,-121.00937 -21.19107,121.00937 m 6.69918,-121.00937 -21.19106,121.00937 m 5.38175,-121.00937 -21.19107,121.00937 m 6.6992,-121.00937 -21.19107,121.00937 m 1.39807,-142.8054 94.80663,50.75292 m -94.80663,-29.06749 94.80663,50.75292 m -94.80663,-29.06749 94.80663,50.75292 m -94.80663,-30.87461 94.80663,50.75292 m -94.80663,-29.06749 94.80663,50.75292 m -94.80663,-30.87462 94.80663,50.75292"
           inkscape:connector-curvature="0"
           sodipodi:nodetypes="cccccccccccccccccccccccc"
           clip-path="url(#clipPath4065)" />
      </g>
      <path
         inkscape:label="#path4112-1"
         sodipodi:nodetypes="csssc"
         inkscape:connector-curvature="0"
         id="SugarConeDrip2"
         d="m 412.78651,153.39858 c 3.95987,0 7.16998,3.54802 7.16998,7.92471 0,4.3767 -3.21011,7.92471 -7.16998,7.92471 -3.95987,0 -7.16998,-3.54801 -7.16998,-7.92471 0,-4.37669 3.21011,-7.92471 7.16998,-7.92471"
         style="color:#000000;fill:#ffaaaa;fill-opacity:1;fill-rule:nonzero;stroke:#000000;stroke-width:0.30000001;stroke-linecap:round;stroke-linejoin:round;stroke-miterlimit:4;stroke-opacity:1;stroke-dashoffset:6;marker:none;visibility:visible;display:inline;overflow:visible;enable-background:accumulate">
        <animate
           keyTimes="0;.8;1"
           additiveH="sum"
           values="1;1;0"
           id="SugarConeDrip2Fade"
           begin="animateSugarConeDrip2Fall.begin"
           dur="2000ms"
           repeatCount="1"
           attributeName="opacity"
           type="opacity"
           fillH="freeze"
           fill="freeze" />
        <animateTransform
           values="0 0;0 50;0 100"
           repeatCount="1"
           id="animateSugarConeDrip2Fall"
           attributeName="transform"
           additive="sum"
           begin="400ms;animateSugarConeDrip2Fall.end+4600ms"
           dur="2000ms"
           fill="freeze"
           type="translate" />
      </path>
      <path
         style="color:#000000;fill:#ffaaaa;fill-opacity:1;fill-rule:nonzero;stroke:#000000;stroke-width:0.30000001;stroke-linecap:round;stroke-linejoin:round;stroke-miterlimit:4;stroke-opacity:1;stroke-dashoffset:6;marker:none;visibility:visible;display:inline;overflow:visible;enable-background:accumulate"
         d="m 403.01357,162.28951 c 0,5.52239 -4.97285,9.99916 -11.10717,9.99916 -6.13432,0 -11.10717,-4.47677 -11.21729,-10.05187 l -0.11013,-0.0527 c 0.0277,3.65643 2.11131,5.49546 3.10446,6.89441 -1.4318,1.2908 -3.12489,4.21049 -9.77704,4.21049 -6.13432,0 -10.83904,-5.64256 -12.57349,-11.16495 l -0.31934,-1.83452 c 0,2.76119 2.82898,6.73017 2.74678,7.07048 -0.31583,1.3068 -2.65208,2.66184 -7.85395,2.92868 -8.08189,-0.54457 -10.69627,-5.40997 -11.28397,-11.97375 l 0,0 c 0.56899,5.60276 1.31204,5.60766 2.03757,7.04507 -2.01,1.80949 -5.68644,2.92868 -8.7536,2.92868 -6.13432,0 -11.10717,-4.47677 -11.10717,-9.99916 0,-5.52238 4.97285,-9.99916 11.10717,-9.99916 l -2.00002,0.11865 c 0,-22.60879 21.96855,-44.1373 49.06813,-44.1373 27.09958,0 49.76849,19.32849 49.76849,41.93728 -1.20607,-0.33448 -2.74567,-0.96915 -4.11851,-1.00344 7.14523,0.79063 9.65674,5.27535 9.26015,11.73038 -0.37618,6.12278 -5.18549,10.7945 -10.69633,10.43748 -2.75541,-0.17851 -5.1696,-1.58074 -6.84536,-3.70352 0.52373,-1.06009 0.71392,-2.25359 0.67062,-3.38039 0,5.52239 -4.97285,9.99916 -11.10717,9.99916 -3.95176,-0.31665 -6.94077,-1.73037 -9.21024,-4.40853"
         id="use5113"
         inkscape:connector-curvature="0"
         sodipodi:nodetypes="cscccsccsccccssccsccsscccc" />
      <path
         style="color:#000000;fill:#ffaaaa;fill-opacity:1;fill-rule:nonzero;stroke:#000000;stroke-width:0.30000001;stroke-linecap:round;stroke-linejoin:round;stroke-miterlimit:4;stroke-opacity:1;stroke-dashoffset:6;marker:none;visibility:visible;display:inline;overflow:visible;enable-background:accumulate"
         d="m 399.36885,118.77065 c 0,5.28083 -4.30907,9.56178 -9.62458,9.56178 -5.3155,0 -9.62458,-4.28095 -9.72,-9.61219 l -0.0954,-0.0504 c 0.024,3.49649 1.82949,5.25508 2.69008,6.59283 -1.24068,1.23434 -2.70778,4.02632 -8.472,4.02632 -5.31551,0 -9.39224,-5.39574 -10.89517,-10.67658 l -0.27672,-1.75427 c 0,2.64041 2.45137,6.43578 2.38014,6.7612 -0.27367,1.24964 -2.29808,2.54541 -6.8056,2.80058 -7.00312,-0.52075 -9.26853,-5.17333 -9.77778,-11.45 l 0,0 c 0.49304,5.35769 1.13691,5.36237 1.76559,6.73691 -1.7417,1.73034 -4.92741,2.80057 -7.58516,2.80057 -5.31551,0 -9.62458,-4.28095 -9.62458,-9.56178 0,-5.28082 4.30907,-9.56178 9.62458,-9.56178 l -1.73306,0.11346 c 0,-21.619837 19.03618,-42.206653 42.5185,-42.206653 23.48231,0 43.12537,18.483028 43.12537,40.102873 -1.04509,-0.31985 -2.37918,-0.92676 -3.56877,-0.95955 6.19148,0.75605 8.36775,5.36356 8.0241,11.21727 -0.34365,5.85373 -4.49333,10.32233 -9.26858,9.98093 -2.38762,-0.1707 -4.47956,-1.5116 -5.93164,-3.54152 0.45382,-1.01372 0.61863,-2.15502 0.58111,-3.23253 0,5.28083 -4.30908,9.56178 -9.62458,9.56178 -3.42428,-0.3028 -6.01432,-1.65468 -7.98086,-4.21569"
         id="use5113-0"
         inkscape:connector-curvature="0"
         sodipodi:nodetypes="cscccsccsccccssccsccsscccc" />
      <path
         sodipodi:nodetypes="cscccsccsccccssccsccsscccc"
         inkscape:connector-curvature="0"
         id="path3155"
         d="m 398.04739,77.853208 c 0,4.737322 -3.81165,8.577672 -8.51356,8.577672 -4.70191,0 -8.51356,-3.84035 -8.59796,-8.622889 l -0.0845,-0.04521 c 0.0213,3.13663 1.6183,4.714222 2.37954,5.914296 -1.09746,1.107299 -2.39521,3.611923 -7.49402,3.611923 -4.70191,0 -8.30804,-4.840409 -9.63749,-9.577732 l -0.24476,-1.573724 c 0,2.368658 2.16839,5.773405 2.10538,6.065337 -0.24208,1.121024 -2.0328,2.28343 -6.01999,2.512336 -6.19469,-0.467153 -8.1986,-4.640884 -8.64907,-10.271554 l 0,0 c 0.43613,4.806269 1.00567,4.810472 1.56178,6.043538 -1.54065,1.552252 -4.3586,2.512338 -6.70956,2.512338 -4.70191,0 -8.51356,-3.840349 -8.51356,-8.577673 0,-4.737315 3.81165,-8.577673 8.51356,-8.577673 l -1.533,0.101784 c 0,-19.394709 16.83872,-37.862711 37.61033,-37.862711 20.77161,0 38.14714,16.580739 38.14714,35.975447 -0.92444,-0.286931 -2.10454,-0.831375 -3.1568,-0.860791 5.47676,0.678234 7.40181,4.811535 7.09783,10.062781 -0.30399,5.251255 -3.97464,9.259947 -8.19865,8.95368 -2.112,-0.153132 -3.96245,-1.35602 -5.24691,-3.177024 0.40143,-0.909387 0.5472,-1.933218 0.51402,-2.899831 0,4.737322 -3.81165,8.577671 -8.51356,8.577671 -3.02899,-0.271634 -5.32004,-1.484378 -7.05957,-3.781809"
         style="color:#000000;fill:#ffaaaa;fill-opacity:1;fill-rule:nonzero;stroke:#000000;stroke-width:0.30000001;stroke-linecap:round;stroke-linejoin:round;stroke-miterlimit:4;stroke-opacity:1;stroke-dashoffset:6;marker:none;visibility:visible;display:inline;overflow:visible;enable-background:accumulate" />
      <path
         inkscape:label="#path4112-1"
         sodipodi:nodetypes="csssc"
         inkscape:connector-curvature="0"
         id="SugarConeDrip1"
         d="m 432.78651,153.39858 c 3.95987,0 7.16998,3.54802 7.16998,7.92471 0,4.3767 -3.21011,7.92471 -7.16998,7.92471 -3.95987,0 -7.16998,-3.54801 -7.16998,-7.92471 0,-4.37669 3.21011,-7.92471 7.16998,-7.92471"
         style="color:#000000;fill:#ffaaaa;fill-opacity:1;fill-rule:nonzero;stroke:#000000;stroke-width:0.30000001;stroke-linecap:round;stroke-linejoin:round;stroke-miterlimit:4;stroke-opacity:1;stroke-dashoffset:6;marker:none;visibility:visible;display:inline;overflow:visible;enable-background:accumulate">
        <animate
           keyTimes="0;.8;1"
           additiveH="sum"
           values="1;1;0"
           id="SugarConeDrip1Fade"
           begin="animateSugarConeDrip1Fall.begin"
           dur="2000ms"
           repeatCount="1"
           attributeName="opacity"
           type="opacity"
           fillH="freeze"
           fill="freeze" />
        <animateTransform
           values="0 0;0 50;0 100"
           repeatCount="1"
           id="animateSugarConeDrip1Fall"
           attributeName="transform"
           additive="sum"
           begin="0ms;animateSugarConeDrip1Fall.end+600ms"
           dur="2000ms"
           fill="freeze"
           type="translate" />
      </path>
      <path
         sodipodi:nodetypes="csscc"
         inkscape:connector-curvature="0"
         id="path4112"
         d="m 443.33678,146.44583 c 1.76736,1.86744 4.98964,6.40585 4.6223,11.87561 -0.29327,4.36686 -5.88984,8.89523 -9.83579,9.22701 -4.76039,0.40026 -11.40532,-1.85096 -10.73822,-5.49385 l 1.02171,-5.14188"
         style="color:#000000;fill:#ffaaaa;fill-opacity:1;fill-rule:nonzero;stroke:#000000;stroke-width:0.30000001;stroke-linecap:round;stroke-linejoin:round;stroke-miterlimit:4;stroke-opacity:1;stroke-dashoffset:6;marker:none;visibility:visible;display:inline;overflow:visible;enable-background:accumulate"
         transform="translate(-5.3367779,2.4015501)" />
    </g>
  </g>
</svg>
